# MagicaVoxel @ Ephtracy

# group
o 

# material
mtllib Zombie.mtl
usemtl palette

# normals
vn -1 0 0
vn 1 0 0
vn 0 0 1
vn 0 0 -1
vn 0 -1 0
vn 0 1 0

# texcoords
vt 0.154297 0.5
vt 0.583984 0.5
vt 0.982422 0.5

# verts
v -0.3 2.1 -0.1
v -0.3 2.1 -0.3
v -0.3 2.2 -0.3
v -0.3 2.2 -0.4
v -0.3 2.3 -0.1
v -0.3 2.3 -0.4
v -0.2 2.1 -0.3
v -0.2 2.1 -0.7
v -0.2 2.2 -0.3
v -0.2 2.2 -0.4
v -0.2 2.3 -0.1
v -0.2 2.3 -0.4
v -0.2 2.3 -0.5
v -0.2 2.3 -0.7
v -0.2 2.4 -0.1
v -0.2 2.4 -0.5
v -0.1 1.4 -7.45058e-08
v -0.1 1.4 -0.2
v -0.1 1.8 -7.45058e-08
v -0.1 1.8 -0.2
v -0.1 2 -7.45058e-08
v -0.1 2 -0.1
v -0.1 2.1 -0.1
v -0.1 2.3 -7.45058e-08
v -0.1 2.3 -0.1
v 2.98023e-08 0.9 -7.45058e-08
v 2.98023e-08 0.9 -0.4
v 2.98023e-08 1.1 -7.45058e-08
v 2.98023e-08 1.1 -0.2
v 2.98023e-08 1.1 -0.4
v 2.98023e-08 1.3 0.0999999
v 2.98023e-08 1.3 -7.45058e-08
v 2.98023e-08 1.4 -7.45058e-08
v 2.98023e-08 1.4 -0.2
v 2.98023e-08 1.4 -0.3
v 2.98023e-08 1.8 0.0999999
v 2.98023e-08 1.8 -7.45058e-08
v 2.98023e-08 1.8 -0.2
v 2.98023e-08 1.8 -0.3
v 2.98023e-08 2 -7.45058e-08
v 2.98023e-08 2 -0.1
v 2.98023e-08 2 -0.2
v 2.98023e-08 2 -0.3
v 2.98023e-08 2.1 0.0999999
v 2.98023e-08 2.1 -7.45058e-08
v 2.98023e-08 2.1 -0.1
v 2.98023e-08 2.1 -0.2
v 2.98023e-08 2.1 -0.3
v 2.98023e-08 2.3 0.0999999
v 2.98023e-08 2.3 -7.45058e-08
v 0.1 1.2 -0.2
v 0.1 1.2 -0.3
v 0.1 1.4 -0.2
v 0.1 1.4 -0.3
v 0.1 2 0.0999999
v 0.1 2 -7.45058e-08
v 0.1 2.1 0.0999999
v 0.1 2.1 -7.45058e-08
v 0.1 2.4 0.0999999
v 0.1 2.4 -0.2
v 0.1 2.7 0.0999999
v 0.1 2.7 -0.2
v 0.2 2.3 -7.45058e-08
v 0.2 2.3 -0.2
v 0.2 2.4 -7.45058e-08
v 0.2 2.4 -0.2
v 0.2 2.4 -0.4
v 0.2 2.6 -0.2
v 0.2 2.6 -0.4
v 0.3 2 0.0999999
v 0.3 2 -7.45058e-08
v 0.3 2 -0.2
v 0.3 2 -0.3
v 0.3 2.1 0.0999999
v 0.3 2.1 -7.45058e-08
v 0.3 2.1 -0.2
v 0.3 2.1 -0.3
v 0.4 0.9 -7.45058e-08
v 0.4 0.9 -0.4
v 0.4 1.1 -7.45058e-08
v 0.4 1.1 -0.2
v 0.4 1.1 -0.4
v 0.4 1.3 0.0999999
v 0.4 1.3 -7.45058e-08
v 0.4 1.5 -7.45058e-08
v 0.4 1.5 -0.2
v 0.4 1.5 -0.3
v 0.4 1.6 0.0999999
v 0.4 1.6 -7.45058e-08
v 0.4 1.6 -0.2
v 0.4 1.6 -0.3
v 0.5 1.3 -0.2
v 0.5 1.3 -0.3
v 0.5 1.5 -0.2
v 0.5 1.5 -0.3
v 0.5 2.1 -0.2
v 0.5 2.1 -0.3
v 0.5 2.2 -0.2
v 0.5 2.2 -0.3
v 0.6 2.1 -0.3
v 0.6 2.1 -0.8
v 0.6 2.3 -0.1
v 0.6 2.3 -0.2
v 0.6 2.3 -0.3
v 0.6 2.3 -0.4
v 0.6 2.3 -0.8
v 0.6 2.4 -0.1
v 0.6 2.4 -0.4
v 0.7 2.3 -0.4
v 0.7 2.3 -0.5
v 0.7 2.4 -0.4
v 0.7 2.4 -0.5
v -0.1 2.3 -0.4
v -0.1 2.3 -0.5
v -0.1 2.4 -0.4
v -0.1 2.4 -0.5
v 2.98023e-08 2.1 -0.3
v 2.98023e-08 2.1 -0.7
v 2.98023e-08 2.3 -0.1
v 2.98023e-08 2.3 -0.2
v 2.98023e-08 2.3 -0.3
v 2.98023e-08 2.3 -0.4
v 2.98023e-08 2.3 -0.7
v 2.98023e-08 2.4 -0.1
v 2.98023e-08 2.4 -0.4
v 0.1 1.3 0.0999999
v 0.1 1.3 -7.45058e-08
v 0.1 1.5 0.0999999
v 0.1 1.5 -7.45058e-08
v 0.2 0.9 -7.45058e-08
v 0.2 0.9 -0.4
v 0.2 1.1 -7.45058e-08
v 0.2 1.1 -0.2
v 0.2 1.1 -0.4
v 0.2 1.2 -0.2
v 0.2 1.2 -0.3
v 0.2 1.5 0.0999999
v 0.2 1.5 -7.45058e-08
v 0.2 1.5 -0.2
v 0.2 1.6 0.0999999
v 0.2 1.6 -7.45058e-08
v 0.2 1.6 -0.2
v 0.2 1.6 -0.3
v 0.2 2 0.0999999
v 0.2 2 -7.45058e-08
v 0.2 2 -0.2
v 0.2 2 -0.3
v 0.2 2.1 0.0999999
v 0.2 2.1 -7.45058e-08
v 0.2 2.1 -0.2
v 0.2 2.1 -0.3
v 0.4 2 -0.2
v 0.4 2 -0.3
v 0.4 2.2 -0.2
v 0.4 2.2 -0.3
v 0.4 2.3 -7.45058e-08
v 0.4 2.3 -0.2
v 0.4 2.4 -7.45058e-08
v 0.4 2.4 -0.2
v 0.4 2.4 -0.4
v 0.4 2.6 -0.2
v 0.4 2.6 -0.4
v 0.5 1.3 0.0999999
v 0.5 1.3 -7.45058e-08
v 0.5 1.5 0.0999999
v 0.5 1.5 -7.45058e-08
v 0.5 2 0.0999999
v 0.5 2 -7.45058e-08
v 0.5 2.1 0.0999999
v 0.5 2.1 -7.45058e-08
v 0.5 2.4 0.0999999
v 0.5 2.4 -0.2
v 0.5 2.7 0.0999999
v 0.5 2.7 -0.2
v 0.6 0.9 -7.45058e-08
v 0.6 0.9 -0.4
v 0.6 1.1 -7.45058e-08
v 0.6 1.1 -0.2
v 0.6 1.1 -0.4
v 0.6 1.3 -0.1
v 0.6 1.3 -0.2
v 0.6 1.3 -0.3
v 0.6 1.5 0.0999999
v 0.6 1.5 -7.45058e-08
v 0.6 1.5 -0.1
v 0.6 1.8 0.0999999
v 0.6 1.8 -7.45058e-08
v 0.6 1.8 -0.2
v 0.6 1.8 -0.3
v 0.6 2 -7.45058e-08
v 0.6 2 -0.1
v 0.6 2.1 0.0999999
v 0.6 2.1 -7.45058e-08
v 0.6 2.1 -0.1
v 0.6 2.1 -0.2
v 0.6 2.3 0.0999999
v 0.6 2.3 -7.45058e-08
v 0.7 1.3 -0.1
v 0.7 1.3 -0.2
v 0.7 1.5 -7.45058e-08
v 0.7 1.5 -0.1
v 0.7 1.8 -7.45058e-08
v 0.7 1.8 -0.2
v 0.7 2 -7.45058e-08
v 0.7 2 -0.1
v 0.7 2.1 -0.1
v 0.7 2.2 -7.45058e-08
v 0.7 2.2 -0.1
v 0.8 2.1 -0.3
v 0.8 2.1 -0.8
v 0.8 2.2 -7.45058e-08
v 0.8 2.2 -0.1
v 0.8 2.2 -0.3
v 0.8 2.2 -0.4
v 0.8 2.3 -7.45058e-08
v 0.8 2.3 -0.1
v 0.8 2.3 -0.4
v 0.8 2.3 -0.5
v 0.8 2.3 -0.8
v 0.8 2.4 -0.1
v 0.8 2.4 -0.5
v 0.9 2.1 -0.1
v 0.9 2.1 -0.3
v 0.9 2.2 -0.3
v 0.9 2.2 -0.4
v 0.9 2.3 -0.1
v 0.9 2.3 -0.4
v 2.98023e-08 1.3 0.0999999
v 2.98023e-08 1.8 0.0999999
v 2.98023e-08 2.1 0.0999999
v 2.98023e-08 2.3 0.0999999
v 0.1 1.3 0.0999999
v 0.1 1.5 0.0999999
v 0.1 2 0.0999999
v 0.1 2.1 0.0999999
v 0.1 2.4 0.0999999
v 0.1 2.7 0.0999999
v 0.2 1.5 0.0999999
v 0.2 1.6 0.0999999
v 0.2 2 0.0999999
v 0.2 2.1 0.0999999
v 0.3 2 0.0999999
v 0.3 2.1 0.0999999
v 0.4 1.3 0.0999999
v 0.4 1.6 0.0999999
v 0.5 1.3 0.0999999
v 0.5 1.5 0.0999999
v 0.5 2 0.0999999
v 0.5 2.1 0.0999999
v 0.5 2.4 0.0999999
v 0.5 2.7 0.0999999
v 0.6 1.5 0.0999999
v 0.6 1.8 0.0999999
v 0.6 2.1 0.0999999
v 0.6 2.3 0.0999999
v -0.1 1.4 -7.45058e-08
v -0.1 1.8 -7.45058e-08
v -0.1 2 -7.45058e-08
v -0.1 2.3 -7.45058e-08
v 2.98023e-08 0.9 -7.45058e-08
v 2.98023e-08 1.1 -7.45058e-08
v 2.98023e-08 1.3 -7.45058e-08
v 2.98023e-08 1.4 -7.45058e-08
v 2.98023e-08 1.8 -7.45058e-08
v 2.98023e-08 2 -7.45058e-08
v 2.98023e-08 2.1 -7.45058e-08
v 2.98023e-08 2.3 -7.45058e-08
v 0.1 1.3 -7.45058e-08
v 0.1 1.5 -7.45058e-08
v 0.1 2 -7.45058e-08
v 0.1 2.1 -7.45058e-08
v 0.2 0.9 -7.45058e-08
v 0.2 1.1 -7.45058e-08
v 0.2 1.5 -7.45058e-08
v 0.2 1.6 -7.45058e-08
v 0.2 2 -7.45058e-08
v 0.2 2.1 -7.45058e-08
v 0.2 2.3 -7.45058e-08
v 0.2 2.4 -7.45058e-08
v 0.3 2 -7.45058e-08
v 0.3 2.1 -7.45058e-08
v 0.4 0.9 -7.45058e-08
v 0.4 1.1 -7.45058e-08
v 0.4 1.3 -7.45058e-08
v 0.4 1.5 -7.45058e-08
v 0.4 1.6 -7.45058e-08
v 0.4 2.3 -7.45058e-08
v 0.4 2.4 -7.45058e-08
v 0.5 1.3 -7.45058e-08
v 0.5 1.5 -7.45058e-08
v 0.5 2 -7.45058e-08
v 0.5 2.1 -7.45058e-08
v 0.6 0.9 -7.45058e-08
v 0.6 1.1 -7.45058e-08
v 0.6 1.5 -7.45058e-08
v 0.6 1.8 -7.45058e-08
v 0.6 2 -7.45058e-08
v 0.6 2.1 -7.45058e-08
v 0.6 2.3 -7.45058e-08
v 0.7 1.5 -7.45058e-08
v 0.7 1.8 -7.45058e-08
v 0.7 2 -7.45058e-08
v 0.7 2.2 -7.45058e-08
v 0.8 2.2 -7.45058e-08
v 0.8 2.3 -7.45058e-08
v -0.3 2.1 -0.1
v -0.3 2.3 -0.1
v -0.2 2.1 -0.1
v -0.2 2.3 -0.1
v -0.2 2.4 -0.1
v -0.1 2.1 -0.1
v -0.1 2.3 -0.1
v 2.98023e-08 2.3 -0.1
v 2.98023e-08 2.4 -0.1
v 0.6 1.3 -0.1
v 0.6 1.5 -0.1
v 0.6 2.3 -0.1
v 0.6 2.4 -0.1
v 0.7 1.3 -0.1
v 0.7 1.5 -0.1
v 0.7 2.1 -0.1
v 0.7 2.2 -0.1
v 0.8 2.1 -0.1
v 0.8 2.2 -0.1
v 0.8 2.3 -0.1
v 0.8 2.4 -0.1
v 0.9 2.1 -0.1
v 0.9 2.3 -0.1
v -0.1 2 -0.1
v -0.1 2.1 -0.1
v 2.98023e-08 2 -0.1
v 2.98023e-08 2.1 -0.1
v 0.6 2 -0.1
v 0.6 2.1 -0.1
v 0.7 2 -0.1
v 0.7 2.1 -0.1
v -0.1 1.4 -0.2
v -0.1 1.8 -0.2
v 2.98023e-08 1.1 -0.2
v 2.98023e-08 1.4 -0.2
v 2.98023e-08 1.8 -0.2
v 2.98023e-08 2 -0.2
v 0.1 1.2 -0.2
v 0.1 1.4 -0.2
v 0.1 2.4 -0.2
v 0.1 2.7 -0.2
v 0.2 1.1 -0.2
v 0.2 1.2 -0.2
v 0.2 1.5 -0.2
v 0.2 1.6 -0.2
v 0.2 2 -0.2
v 0.2 2.1 -0.2
v 0.2 2.3 -0.2
v 0.2 2.4 -0.2
v 0.2 2.6 -0.2
v 0.3 2 -0.2
v 0.3 2.1 -0.2
v 0.4 1.1 -0.2
v 0.4 1.5 -0.2
v 0.4 1.6 -0.2
v 0.4 2 -0.2
v 0.4 2.2 -0.2
v 0.4 2.3 -0.2
v 0.4 2.4 -0.2
v 0.4 2.6 -0.2
v 0.5 1.3 -0.2
v 0.5 1.5 -0.2
v 0.5 2.1 -0.2
v 0.5 2.2 -0.2
v 0.5 2.4 -0.2
v 0.5 2.7 -0.2
v 0.6 1.1 -0.2
v 0.6 1.3 -0.2
v 0.6 1.8 -0.2
v 0.6 2.1 -0.2
v 0.7 1.3 -0.2
v 0.7 1.8 -0.2
v -0.3 2.1 -0.3
v -0.3 2.2 -0.3
v -0.2 2.1 -0.3
v -0.2 2.2 -0.3
v 2.98023e-08 1.4 -0.3
v 2.98023e-08 1.8 -0.3
v 2.98023e-08 2 -0.3
v 2.98023e-08 2.1 -0.3
v 2.98023e-08 2.3 -0.3
v 0.1 1.2 -0.3
v 0.1 1.4 -0.3
v 0.2 1.2 -0.3
v 0.2 1.6 -0.3
v 0.2 2 -0.3
v 0.2 2.1 -0.3
v 0.3 2 -0.3
v 0.3 2.1 -0.3
v 0.4 1.5 -0.3
v 0.4 1.6 -0.3
v 0.4 2 -0.3
v 0.4 2.2 -0.3
v 0.5 1.3 -0.3
v 0.5 1.5 -0.3
v 0.5 2.1 -0.3
v 0.5 2.2 -0.3
v 0.6 1.3 -0.3
v 0.6 1.8 -0.3
v 0.6 2.1 -0.3
v 0.6 2.3 -0.3
v 0.8 2.1 -0.3
v 0.8 2.2 -0.3
v 0.9 2.1 -0.3
v 0.9 2.2 -0.3
v -0.3 2.2 -0.4
v -0.3 2.3 -0.4
v -0.2 2.2 -0.4
v -0.2 2.3 -0.4
v -0.1 2.3 -0.4
v -0.1 2.4 -0.4
v 2.98023e-08 0.9 -0.4
v 2.98023e-08 1.1 -0.4
v 2.98023e-08 2.3 -0.4
v 2.98023e-08 2.4 -0.4
v 0.2 0.9 -0.4
v 0.2 1.1 -0.4
v 0.2 2.4 -0.4
v 0.2 2.6 -0.4
v 0.4 0.9 -0.4
v 0.4 1.1 -0.4
v 0.4 2.4 -0.4
v 0.4 2.6 -0.4
v 0.6 0.9 -0.4
v 0.6 1.1 -0.4
v 0.6 2.3 -0.4
v 0.6 2.4 -0.4
v 0.7 2.3 -0.4
v 0.7 2.4 -0.4
v 0.8 2.2 -0.4
v 0.8 2.3 -0.4
v 0.9 2.2 -0.4
v 0.9 2.3 -0.4
v -0.2 2.3 -0.5
v -0.2 2.4 -0.5
v -0.1 2.3 -0.5
v -0.1 2.4 -0.5
v 0.7 2.3 -0.5
v 0.7 2.4 -0.5
v 0.8 2.3 -0.5
v 0.8 2.4 -0.5
v -0.2 2.1 -0.7
v -0.2 2.3 -0.7
v 2.98023e-08 2.1 -0.7
v 2.98023e-08 2.3 -0.7
v 0.6 2.1 -0.8
v 0.6 2.3 -0.8
v 0.8 2.1 -0.8
v 0.8 2.3 -0.8
v 2.98023e-08 0.9 -7.45058e-08
v 0.2 0.9 -7.45058e-08
v 0.4 0.9 -7.45058e-08
v 0.6 0.9 -7.45058e-08
v 2.98023e-08 0.9 -0.4
v 0.2 0.9 -0.4
v 0.4 0.9 -0.4
v 0.6 0.9 -0.4
v 0.1 1.2 -0.2
v 0.2 1.2 -0.2
v 0.1 1.2 -0.3
v 0.2 1.2 -0.3
v 2.98023e-08 1.3 0.0999999
v 0.1 1.3 0.0999999
v 0.4 1.3 0.0999999
v 0.5 1.3 0.0999999
v 2.98023e-08 1.3 -7.45058e-08
v 0.1 1.3 -7.45058e-08
v 0.4 1.3 -7.45058e-08
v 0.5 1.3 -7.45058e-08
v 0.6 1.3 -0.1
v 0.7 1.3 -0.1
v 0.5 1.3 -0.2
v 0.6 1.3 -0.2
v 0.7 1.3 -0.2
v 0.5 1.3 -0.3
v 0.6 1.3 -0.3
v -0.1 1.4 -7.45058e-08
v 2.98023e-08 1.4 -7.45058e-08
v -0.1 1.4 -0.2
v 2.98023e-08 1.4 -0.2
v 0.1 1.4 -0.2
v 2.98023e-08 1.4 -0.3
v 0.1 1.4 -0.3
v 0.1 1.5 0.0999999
v 0.2 1.5 0.0999999
v 0.5 1.5 0.0999999
v 0.6 1.5 0.0999999
v 0.1 1.5 -7.45058e-08
v 0.2 1.5 -7.45058e-08
v 0.4 1.5 -7.45058e-08
v 0.5 1.5 -7.45058e-08
v 0.6 1.5 -7.45058e-08
v 0.7 1.5 -7.45058e-08
v 0.6 1.5 -0.1
v 0.7 1.5 -0.1
v 0.2 1.5 -0.2
v 0.4 1.5 -0.2
v 0.5 1.5 -0.2
v 0.4 1.5 -0.3
v 0.5 1.5 -0.3
v 0.2 1.6 0.0999999
v 0.4 1.6 0.0999999
v 0.2 1.6 -7.45058e-08
v 0.4 1.6 -7.45058e-08
v 0.2 1.6 -0.2
v 0.4 1.6 -0.2
v 0.2 1.6 -0.3
v 0.4 1.6 -0.3
v 0.1 2 0.0999999
v 0.2 2 0.0999999
v 0.3 2 0.0999999
v 0.5 2 0.0999999
v -0.1 2 -7.45058e-08
v 2.98023e-08 2 -7.45058e-08
v 0.1 2 -7.45058e-08
v 0.2 2 -7.45058e-08
v 0.3 2 -7.45058e-08
v 0.5 2 -7.45058e-08
v 0.6 2 -7.45058e-08
v 0.7 2 -7.45058e-08
v -0.1 2 -0.1
v 2.98023e-08 2 -0.1
v 0.6 2 -0.1
v 0.7 2 -0.1
v 2.98023e-08 2 -0.2
v 0.2 2 -0.2
v 0.3 2 -0.2
v 0.4 2 -0.2
v 2.98023e-08 2 -0.3
v 0.2 2 -0.3
v 0.3 2 -0.3
v 0.4 2 -0.3
v 2.98023e-08 2.1 0.0999999
v 0.1 2.1 0.0999999
v 0.2 2.1 0.0999999
v 0.3 2.1 0.0999999
v 0.5 2.1 0.0999999
v 0.6 2.1 0.0999999
v 2.98023e-08 2.1 -7.45058e-08
v 0.1 2.1 -7.45058e-08
v 0.2 2.1 -7.45058e-08
v 0.3 2.1 -7.45058e-08
v 0.5 2.1 -7.45058e-08
v 0.6 2.1 -7.45058e-08
v -0.3 2.1 -0.1
v -0.2 2.1 -0.1
v -0.1 2.1 -0.1
v 2.98023e-08 2.1 -0.1
v 0.6 2.1 -0.1
v 0.7 2.1 -0.1
v 0.8 2.1 -0.1
v 0.9 2.1 -0.1
v 2.98023e-08 2.1 -0.2
v 0.2 2.1 -0.2
v 0.3 2.1 -0.2
v 0.5 2.1 -0.2
v 0.6 2.1 -0.2
v -0.3 2.1 -0.3
v -0.2 2.1 -0.3
v 2.98023e-08 2.1 -0.3
v 0.2 2.1 -0.3
v 0.3 2.1 -0.3
v 0.5 2.1 -0.3
v 0.6 2.1 -0.3
v 0.8 2.1 -0.3
v 0.9 2.1 -0.3
v -0.2 2.1 -0.7
v 2.98023e-08 2.1 -0.7
v 0.6 2.1 -0.8
v 0.8 2.1 -0.8
v 0.7 2.2 -7.45058e-08
v 0.8 2.2 -7.45058e-08
v 0.7 2.2 -0.1
v 0.8 2.2 -0.1
v 0.4 2.2 -0.2
v 0.5 2.2 -0.2
v -0.3 2.2 -0.3
v -0.2 2.2 -0.3
v 0.4 2.2 -0.3
v 0.5 2.2 -0.3
v 0.8 2.2 -0.3
v 0.9 2.2 -0.3
v -0.3 2.2 -0.4
v -0.2 2.2 -0.4
v 0.8 2.2 -0.4
v 0.9 2.2 -0.4
v 0.1 2.4 0.0999999
v 0.5 2.4 0.0999999
v 0.2 2.4 -7.45058e-08
v 0.4 2.4 -7.45058e-08
v 0.1 2.4 -0.2
v 0.2 2.4 -0.2
v 0.4 2.4 -0.2
v 0.5 2.4 -0.2
v 0.2 2.4 -0.4
v 0.4 2.4 -0.4
v 2.98023e-08 1.1 -0.2
v 0.2 1.1 -0.2
v 0.4 1.1 -0.2
v 0.6 1.1 -0.2
v 2.98023e-08 1.1 -0.4
v 0.2 1.1 -0.4
v 0.4 1.1 -0.4
v 0.6 1.1 -0.4
v 2.98023e-08 1.8 0.0999999
v 0.6 1.8 0.0999999
v -0.1 1.8 -7.45058e-08
v 2.98023e-08 1.8 -7.45058e-08
v 0.6 1.8 -7.45058e-08
v 0.7 1.8 -7.45058e-08
v -0.1 1.8 -0.2
v 2.98023e-08 1.8 -0.2
v 0.6 1.8 -0.2
v 0.7 1.8 -0.2
v 2.98023e-08 1.8 -0.3
v 0.6 1.8 -0.3
v 2.98023e-08 2.3 0.0999999
v 0.6 2.3 0.0999999
v -0.1 2.3 -7.45058e-08
v 2.98023e-08 2.3 -7.45058e-08
v 0.2 2.3 -7.45058e-08
v 0.4 2.3 -7.45058e-08
v 0.6 2.3 -7.45058e-08
v 0.8 2.3 -7.45058e-08
v -0.3 2.3 -0.1
v -0.2 2.3 -0.1
v -0.1 2.3 -0.1
v 2.98023e-08 2.3 -0.1
v 0.6 2.3 -0.1
v 0.8 2.3 -0.1
v 0.9 2.3 -0.1
v 2.98023e-08 2.3 -0.2
v 0.2 2.3 -0.2
v 0.4 2.3 -0.2
v 0.6 2.3 -0.2
v 2.98023e-08 2.3 -0.3
v 0.6 2.3 -0.3
v -0.3 2.3 -0.4
v -0.2 2.3 -0.4
v -0.1 2.3 -0.4
v 2.98023e-08 2.3 -0.4
v 0.6 2.3 -0.4
v 0.7 2.3 -0.4
v 0.8 2.3 -0.4
v 0.9 2.3 -0.4
v -0.2 2.3 -0.5
v -0.1 2.3 -0.5
v 0.7 2.3 -0.5
v 0.8 2.3 -0.5
v -0.2 2.3 -0.7
v 2.98023e-08 2.3 -0.7
v 0.6 2.3 -0.8
v 0.8 2.3 -0.8
v -0.2 2.4 -0.1
v 2.98023e-08 2.4 -0.1
v 0.6 2.4 -0.1
v 0.8 2.4 -0.1
v -0.1 2.4 -0.4
v 2.98023e-08 2.4 -0.4
v 0.6 2.4 -0.4
v 0.7 2.4 -0.4
v -0.2 2.4 -0.5
v -0.1 2.4 -0.5
v 0.7 2.4 -0.5
v 0.8 2.4 -0.5
v 0.2 2.6 -0.2
v 0.4 2.6 -0.2
v 0.2 2.6 -0.4
v 0.4 2.6 -0.4
v 0.1 2.7 0.0999999
v 0.5 2.7 0.0999999
v 0.1 2.7 -0.2
v 0.5 2.7 -0.2

# faces
f 3/3/1 2/3/1 1/3/1
f 5/3/1 3/3/1 1/3/1
f 5/3/1 4/3/1 3/3/1
f 6/3/1 4/3/1 5/3/1
f 9/2/1 8/2/1 7/2/1
f 10/2/1 8/2/1 9/2/1
f 12/2/1 8/2/1 10/2/1
f 13/2/1 8/2/1 12/2/1
f 14/2/1 8/2/1 13/2/1
f 15/3/1 12/3/1 11/3/1
f 15/3/1 13/3/1 12/3/1
f 16/3/1 13/3/1 15/3/1
f 19/3/1 18/3/1 17/3/1
f 20/3/1 18/3/1 19/3/1
f 23/3/1 22/3/1 21/3/1
f 24/3/1 23/3/1 21/3/1
f 25/3/1 23/3/1 24/3/1
f 28/1/1 27/1/1 26/1/1
f 29/1/1 27/1/1 28/1/1
f 30/1/1 27/1/1 29/1/1
f 32/2/1 29/2/1 28/2/1
f 33/2/1 29/2/1 32/2/1
f 33/3/1 32/3/1 31/3/1
f 34/2/1 29/2/1 33/2/1
f 36/3/1 33/3/1 31/3/1
f 37/3/1 33/3/1 36/3/1
f 38/3/1 35/3/1 34/3/1
f 39/3/1 35/3/1 38/3/1
f 40/2/1 38/2/1 37/2/1
f 41/2/1 38/2/1 40/2/1
f 42/2/1 38/2/1 41/2/1
f 46/2/1 42/2/1 41/2/1
f 47/3/1 43/3/1 42/3/1
f 47/2/1 42/2/1 46/2/1
f 48/3/1 43/3/1 47/3/1
f 49/3/1 45/3/1 44/3/1
f 50/3/1 45/3/1 49/3/1
f 53/3/1 52/3/1 51/3/1
f 54/3/1 52/3/1 53/3/1
f 57/3/1 56/3/1 55/3/1
f 58/3/1 56/3/1 57/3/1
f 61/2/1 60/2/1 59/2/1
f 62/2/1 60/2/1 61/2/1
f 65/2/1 64/2/1 63/2/1
f 66/2/1 64/2/1 65/2/1
f 68/2/1 67/2/1 66/2/1
f 69/2/1 67/2/1 68/2/1
f 74/3/1 71/3/1 70/3/1
f 75/3/1 71/3/1 74/3/1
f 76/3/1 73/3/1 72/3/1
f 77/3/1 73/3/1 76/3/1
f 80/1/1 79/1/1 78/1/1
f 81/1/1 79/1/1 80/1/1
f 82/1/1 79/1/1 81/1/1
f 84/2/1 81/2/1 80/2/1
f 85/2/1 81/2/1 84/2/1
f 85/3/1 84/3/1 83/3/1
f 86/2/1 81/2/1 85/2/1
f 88/3/1 85/3/1 83/3/1
f 89/3/1 85/3/1 88/3/1
f 90/3/1 87/3/1 86/3/1
f 91/3/1 87/3/1 90/3/1
f 94/3/1 93/3/1 92/3/1
f 95/3/1 93/3/1 94/3/1
f 98/3/1 97/3/1 96/3/1
f 99/3/1 97/3/1 98/3/1
f 104/2/1 101/2/1 100/2/1
f 105/2/1 101/2/1 104/2/1
f 106/2/1 101/2/1 105/2/1
f 107/3/1 103/3/1 102/3/1
f 107/3/1 104/3/1 103/3/1
f 107/3/1 105/3/1 104/3/1
f 108/3/1 105/3/1 107/3/1
f 111/3/1 110/3/1 109/3/1
f 112/3/1 110/3/1 111/3/1
f 113/3/2 114/3/2 115/3/2
f 115/3/2 114/3/2 116/3/2
f 117/2/2 118/2/2 121/2/2
f 121/2/2 118/2/2 122/2/2
f 122/2/2 118/2/2 123/2/2
f 119/3/2 120/3/2 124/3/2
f 120/3/2 121/3/2 124/3/2
f 121/3/2 122/3/2 124/3/2
f 124/3/2 122/3/2 125/3/2
f 126/3/2 127/3/2 128/3/2
f 128/3/2 127/3/2 129/3/2
f 130/1/2 131/1/2 132/1/2
f 132/1/2 131/1/2 133/1/2
f 133/1/2 131/1/2 134/1/2
f 132/2/2 133/2/2 135/2/2
f 132/2/2 135/2/2 138/2/2
f 135/3/2 136/3/2 139/3/2
f 138/2/2 135/2/2 139/2/2
f 137/3/2 138/3/2 140/3/2
f 140/3/2 138/3/2 141/3/2
f 139/3/2 136/3/2 142/3/2
f 142/3/2 136/3/2 143/3/2
f 144/3/2 145/3/2 148/3/2
f 148/3/2 145/3/2 149/3/2
f 146/3/2 147/3/2 150/3/2
f 150/3/2 147/3/2 151/3/2
f 152/3/2 153/3/2 154/3/2
f 154/3/2 153/3/2 155/3/2
f 156/2/2 157/2/2 158/2/2
f 158/2/2 157/2/2 159/2/2
f 159/2/2 160/2/2 161/2/2
f 161/2/2 160/2/2 162/2/2
f 163/3/2 164/3/2 165/3/2
f 165/3/2 164/3/2 166/3/2
f 167/3/2 168/3/2 169/3/2
f 169/3/2 168/3/2 170/3/2
f 171/2/2 172/2/2 173/2/2
f 173/2/2 172/2/2 174/2/2
f 175/1/2 176/1/2 177/1/2
f 177/1/2 176/1/2 178/1/2
f 178/1/2 176/1/2 179/1/2
f 177/2/2 178/2/2 180/2/2
f 180/2/2 178/2/2 181/2/2
f 177/2/2 180/2/2 184/2/2
f 184/2/2 180/2/2 185/2/2
f 183/3/2 184/3/2 186/3/2
f 186/3/2 184/3/2 187/3/2
f 181/3/2 182/3/2 188/3/2
f 188/3/2 182/3/2 189/3/2
f 187/2/2 188/2/2 190/2/2
f 190/2/2 188/2/2 191/2/2
f 191/2/2 188/2/2 194/2/2
f 194/2/2 188/2/2 195/2/2
f 192/3/2 193/3/2 196/3/2
f 196/3/2 193/3/2 197/3/2
f 198/3/2 199/3/2 201/3/2
f 200/3/2 201/3/2 202/3/2
f 201/3/2 199/3/2 203/3/2
f 202/3/2 201/3/2 203/3/2
f 204/3/2 205/3/2 206/3/2
f 204/3/2 206/3/2 207/3/2
f 207/3/2 206/3/2 208/3/2
f 209/2/2 210/2/2 213/2/2
f 213/2/2 210/2/2 214/2/2
f 211/3/2 212/3/2 215/3/2
f 215/3/2 212/3/2 216/3/2
f 214/2/2 210/2/2 217/2/2
f 217/2/2 210/2/2 218/2/2
f 218/2/2 210/2/2 219/2/2
f 216/3/2 217/3/2 220/3/2
f 217/3/2 218/3/2 220/3/2
f 220/3/2 218/3/2 221/3/2
f 222/3/2 223/3/2 224/3/2
f 222/3/2 224/3/2 226/3/2
f 224/3/2 225/3/2 226/3/2
f 226/3/2 225/3/2 227/3/2
f 232/3/3 229/3/3 228/3/3
f 233/3/3 229/3/3 232/3/3
f 235/3/3 231/3/3 230/3/3
f 238/3/3 229/3/3 233/3/3
f 239/3/3 229/3/3 238/3/3
f 240/3/3 235/3/3 234/3/3
f 241/3/3 231/3/3 235/3/3
f 241/3/3 235/3/3 240/3/3
f 243/3/3 231/3/3 241/3/3
f 245/3/3 229/3/3 239/3/3
f 246/3/3 245/3/3 244/3/3
f 247/3/3 245/3/3 246/3/3
f 248/3/3 243/3/3 242/3/3
f 249/3/3 231/3/3 243/3/3
f 249/3/3 243/3/3 248/3/3
f 250/2/3 237/2/3 236/2/3
f 251/2/3 237/2/3 250/2/3
f 252/3/3 245/3/3 247/3/3
f 253/3/3 229/3/3 245/3/3
f 253/3/3 245/3/3 252/3/3
f 254/3/3 231/3/3 249/3/3
f 255/3/3 231/3/3 254/3/3
f 263/3/3 257/3/3 256/3/3
f 264/3/3 257/3/3 263/3/3
f 265/3/3 259/3/3 258/3/3
f 266/3/3 259/3/3 265/3/3
f 267/3/3 259/3/3 266/3/3
f 268/2/3 262/2/3 261/2/3
f 270/2/3 266/2/3 265/2/3
f 270/2/3 265/2/3 264/2/3
f 271/2/3 266/2/3 270/2/3
f 272/1/3 261/1/3 260/1/3
f 273/2/3 269/2/3 268/2/3
f 273/1/3 261/1/3 272/1/3
f 273/2/3 268/2/3 261/2/3
f 274/2/3 269/2/3 273/2/3
f 276/2/3 270/2/3 264/2/3
f 280/2/3 276/2/3 264/2/3
f 280/2/3 277/2/3 276/2/3
f 281/2/3 277/2/3 280/2/3
f 285/3/3 275/3/3 274/3/3
f 286/3/3 275/3/3 285/3/3
f 287/2/3 279/2/3 278/2/3
f 288/2/3 279/2/3 287/2/3
f 289/2/3 284/2/3 283/2/3
f 291/2/3 280/2/3 264/2/3
f 293/1/3 283/1/3 282/1/3
f 294/2/3 290/2/3 289/2/3
f 294/1/3 283/1/3 293/1/3
f 294/2/3 289/2/3 283/2/3
f 295/2/3 290/2/3 294/2/3
f 296/2/3 292/2/3 291/2/3
f 296/2/3 291/2/3 264/2/3
f 297/2/3 292/2/3 296/2/3
f 298/2/3 292/2/3 297/2/3
f 300/3/3 296/3/3 295/3/3
f 301/3/3 296/3/3 300/3/3
f 302/3/3 299/3/3 298/3/3
f 302/3/3 298/3/3 297/3/3
f 303/3/3 299/3/3 302/3/3
f 304/3/3 299/3/3 303/3/3
f 305/3/3 299/3/3 304/3/3
f 308/3/3 307/3/3 306/3/3
f 309/3/3 307/3/3 308/3/3
f 311/2/3 309/2/3 308/2/3
f 312/3/3 310/3/3 309/3/3
f 312/2/3 309/2/3 311/2/3
f 313/3/3 310/3/3 312/3/3
f 314/3/3 310/3/3 313/3/3
f 319/3/3 316/3/3 315/3/3
f 320/3/3 316/3/3 319/3/3
f 323/2/3 322/2/3 321/2/3
f 324/2/3 322/2/3 323/2/3
f 325/3/3 318/3/3 317/3/3
f 326/3/3 318/3/3 325/3/3
f 327/3/3 324/3/3 323/3/3
f 327/3/3 325/3/3 324/3/3
f 328/3/3 325/3/3 327/3/3
f 329/3/4 330/3/4 331/3/4
f 331/3/4 330/3/4 332/3/4
f 333/3/4 334/3/4 335/3/4
f 335/3/4 334/3/4 336/3/4
f 337/3/4 338/3/4 340/3/4
f 340/3/4 338/3/4 341/3/4
f 339/2/4 340/2/4 343/2/4
f 343/2/4 340/2/4 344/2/4
f 339/2/4 343/2/4 347/2/4
f 347/2/4 343/2/4 348/2/4
f 341/2/4 342/2/4 351/2/4
f 345/2/4 346/2/4 354/2/4
f 354/2/4 346/2/4 355/2/4
f 351/2/4 352/2/4 356/2/4
f 341/2/4 351/2/4 356/2/4
f 356/2/4 352/2/4 357/2/4
f 349/3/4 350/3/4 359/3/4
f 359/3/4 350/3/4 360/3/4
f 341/2/4 356/2/4 361/2/4
f 353/2/4 354/2/4 363/2/4
f 363/2/4 354/2/4 364/2/4
f 355/2/4 346/2/4 365/2/4
f 358/2/4 359/2/4 366/2/4
f 366/2/4 359/2/4 367/2/4
f 361/2/4 362/2/4 368/2/4
f 368/2/4 362/2/4 369/2/4
f 364/2/4 365/2/4 370/2/4
f 365/2/4 346/2/4 371/2/4
f 370/2/4 365/2/4 371/2/4
f 358/2/4 366/2/4 372/2/4
f 372/2/4 366/2/4 373/2/4
f 341/2/4 361/2/4 374/2/4
f 361/2/4 368/2/4 374/2/4
f 374/2/4 368/2/4 375/2/4
f 373/3/4 374/3/4 376/3/4
f 376/3/4 374/3/4 377/3/4
f 378/3/4 379/3/4 380/3/4
f 380/3/4 379/3/4 381/3/4
f 382/3/4 383/3/4 388/3/4
f 387/3/4 388/3/4 389/3/4
f 388/3/4 383/3/4 390/3/4
f 389/3/4 388/3/4 390/3/4
f 384/3/4 385/3/4 391/3/4
f 385/3/4 386/3/4 391/3/4
f 391/3/4 386/3/4 392/3/4
f 392/3/4 386/3/4 394/3/4
f 390/3/4 383/3/4 396/3/4
f 393/3/4 394/3/4 397/3/4
f 394/3/4 386/3/4 398/3/4
f 397/3/4 394/3/4 398/3/4
f 395/3/4 396/3/4 400/3/4
f 398/3/4 386/3/4 402/3/4
f 399/3/4 400/3/4 403/3/4
f 396/3/4 383/3/4 404/3/4
f 403/3/4 400/3/4 404/3/4
f 400/3/4 396/3/4 404/3/4
f 401/3/4 402/3/4 405/3/4
f 402/3/4 386/3/4 406/3/4
f 405/3/4 402/3/4 406/3/4
f 407/3/4 408/3/4 409/3/4
f 409/3/4 408/3/4 410/3/4
f 411/3/4 412/3/4 413/3/4
f 413/3/4 412/3/4 414/3/4
f 415/3/4 416/3/4 419/3/4
f 419/3/4 416/3/4 420/3/4
f 417/1/4 418/1/4 421/1/4
f 421/1/4 418/1/4 422/1/4
f 423/2/4 424/2/4 427/2/4
f 427/2/4 424/2/4 428/2/4
f 425/1/4 426/1/4 429/1/4
f 429/1/4 426/1/4 430/1/4
f 431/3/4 432/3/4 433/3/4
f 433/3/4 432/3/4 434/3/4
f 435/3/4 436/3/4 437/3/4
f 437/3/4 436/3/4 438/3/4
f 439/3/4 440/3/4 441/3/4
f 441/3/4 440/3/4 442/3/4
f 443/3/4 444/3/4 445/3/4
f 445/3/4 444/3/4 446/3/4
f 447/2/4 448/2/4 449/2/4
f 449/2/4 448/2/4 450/2/4
f 451/2/4 452/2/4 453/2/4
f 453/2/4 452/2/4 454/2/4
f 459/1/5 456/1/5 455/1/5
f 460/1/5 456/1/5 459/1/5
f 461/1/5 458/1/5 457/1/5
f 462/1/5 458/1/5 461/1/5
f 465/3/5 464/3/5 463/3/5
f 466/3/5 464/3/5 465/3/5
f 471/3/5 468/3/5 467/3/5
f 472/3/5 468/3/5 471/3/5
f 473/3/5 470/3/5 469/3/5
f 474/3/5 470/3/5 473/3/5
f 478/3/5 476/3/5 475/3/5
f 479/3/5 476/3/5 478/3/5
f 480/3/5 478/3/5 477/3/5
f 481/3/5 478/3/5 480/3/5
f 484/3/5 483/3/5 482/3/5
f 485/3/5 483/3/5 484/3/5
f 487/3/5 486/3/5 485/3/5
f 488/3/5 486/3/5 487/3/5
f 493/3/5 490/3/5 489/3/5
f 494/3/5 490/3/5 493/3/5
f 496/3/5 492/3/5 491/3/5
f 497/3/5 492/3/5 496/3/5
f 499/3/5 498/3/5 497/3/5
f 500/3/5 498/3/5 499/3/5
f 501/3/5 495/3/5 494/3/5
f 502/3/5 495/3/5 501/3/5
f 504/3/5 503/3/5 502/3/5
f 505/3/5 503/3/5 504/3/5
f 508/3/5 507/3/5 506/3/5
f 509/3/5 507/3/5 508/3/5
f 512/3/5 511/3/5 510/3/5
f 513/3/5 511/3/5 512/3/5
f 520/3/5 515/3/5 514/3/5
f 521/3/5 515/3/5 520/3/5
f 522/3/5 517/3/5 516/3/5
f 523/3/5 517/3/5 522/3/5
f 526/3/5 519/3/5 518/3/5
f 527/3/5 519/3/5 526/3/5
f 528/3/5 525/3/5 524/3/5
f 529/3/5 525/3/5 528/3/5
f 534/3/5 531/3/5 530/3/5
f 535/3/5 531/3/5 534/3/5
f 536/3/5 533/3/5 532/3/5
f 537/3/5 533/3/5 536/3/5
f 544/3/5 539/3/5 538/3/5
f 545/3/5 539/3/5 544/3/5
f 546/3/5 541/3/5 540/3/5
f 547/3/5 541/3/5 546/3/5
f 548/3/5 543/3/5 542/3/5
f 549/3/5 543/3/5 548/3/5
f 558/2/5 553/2/5 552/2/5
f 558/2/5 552/2/5 551/2/5
f 562/2/5 556/2/5 555/2/5
f 562/2/5 555/2/5 554/2/5
f 563/3/5 551/3/5 550/3/5
f 564/2/5 558/2/5 551/2/5
f 564/3/5 551/3/5 563/3/5
f 565/2/5 558/2/5 564/2/5
f 566/3/5 560/3/5 559/3/5
f 567/3/5 560/3/5 566/3/5
f 568/3/5 562/3/5 561/3/5
f 569/2/5 556/2/5 562/2/5
f 569/3/5 562/3/5 568/3/5
f 570/3/5 557/3/5 556/3/5
f 570/2/5 556/2/5 569/2/5
f 571/3/5 557/3/5 570/3/5
f 572/2/5 565/2/5 564/2/5
f 573/2/5 565/2/5 572/2/5
f 574/2/5 570/2/5 569/2/5
f 575/2/5 570/2/5 574/2/5
f 578/3/5 577/3/5 576/3/5
f 579/3/5 577/3/5 578/3/5
f 584/3/5 581/3/5 580/3/5
f 585/3/5 581/3/5 584/3/5
f 588/3/5 583/3/5 582/3/5
f 589/3/5 583/3/5 588/3/5
f 590/3/5 587/3/5 586/3/5
f 591/3/5 587/3/5 590/3/5
f 594/2/5 593/2/5 592/2/5
f 595/2/5 593/2/5 594/2/5
f 596/2/5 594/2/5 592/2/5
f 597/2/5 594/2/5 596/2/5
f 598/2/5 593/2/5 595/2/5
f 599/2/5 593/2/5 598/2/5
f 600/2/5 598/2/5 597/2/5
f 601/2/5 598/2/5 600/2/5
f 602/1/6 603/1/6 606/1/6
f 606/1/6 603/1/6 607/1/6
f 604/1/6 605/1/6 608/1/6
f 608/1/6 605/1/6 609/1/6
f 610/3/6 611/3/6 613/3/6
f 613/3/6 611/3/6 614/3/6
f 612/3/6 613/3/6 616/3/6
f 616/3/6 613/3/6 617/3/6
f 614/3/6 615/3/6 618/3/6
f 618/3/6 615/3/6 619/3/6
f 617/3/6 618/3/6 620/3/6
f 620/3/6 618/3/6 621/3/6
f 622/3/6 623/3/6 625/3/6
f 625/3/6 623/3/6 626/3/6
f 626/3/6 623/3/6 627/3/6
f 627/3/6 623/3/6 628/3/6
f 624/3/6 625/3/6 632/3/6
f 625/2/6 626/2/6 633/2/6
f 632/3/6 625/3/6 633/3/6
f 628/3/6 629/3/6 634/3/6
f 627/2/6 628/2/6 634/2/6
f 634/3/6 629/3/6 635/3/6
f 633/2/6 626/2/6 637/2/6
f 637/2/6 626/2/6 638/2/6
f 627/2/6 634/2/6 639/2/6
f 639/2/6 634/2/6 640/2/6
f 637/3/6 638/3/6 641/3/6
f 638/3/6 639/3/6 641/3/6
f 639/3/6 640/3/6 641/3/6
f 641/3/6 640/3/6 642/3/6
f 630/3/6 631/3/6 643/3/6
f 643/3/6 631/3/6 644/3/6
f 635/3/6 636/3/6 649/3/6
f 649/3/6 636/3/6 650/3/6
f 645/2/6 646/2/6 652/2/6
f 647/2/6 648/2/6 653/2/6
f 651/2/6 652/2/6 655/2/6
f 652/2/6 646/2/6 656/2/6
f 655/2/6 652/2/6 656/2/6
f 653/2/6 654/2/6 657/2/6
f 647/2/6 653/2/6 657/2/6
f 657/2/6 654/2/6 658/2/6
f 659/3/6 660/3/6 663/3/6
f 663/3/6 660/3/6 664/3/6
f 661/3/6 662/3/6 665/3/6
f 665/3/6 662/3/6 666/3/6
f 659/3/6 663/3/6 667/3/6
f 667/3/6 663/3/6 668/3/6
f 666/3/6 662/3/6 669/3/6
f 669/3/6 662/3/6 670/3/6
f 671/2/6 672/2/6 673/2/6
f 673/2/6 672/2/6 674/2/6
f 675/2/6 676/2/6 677/2/6
f 677/2/6 676/2/6 678/2/6
